<svg width="24" height="24" viewBox="0 0 24 24" fill="none" xmlns="http://www.w3.org/2000/svg">
<path d="M18.1528 17.0012C17.2907 18.3508 15.7284 19.5 14.1305 19.5C13.8253 19.5 13.5019 19.4499 13.1968 19.3666C13.1428 19.3666 13.107 19.3165 13.0888 19.2664C13.0705 19.2163 13.0705 19.1662 13.0888 19.133L13.1968 18.9C13.4304 18.3834 13.7173 17.8172 13.8253 17.2843C13.9151 16.8847 13.8969 16.5177 13.7896 16.2015C13.61 15.7186 13.215 15.4017 12.7836 15.0855C12.4244 14.8187 12.0653 14.5356 11.8141 14.1523C11.5448 13.7359 11.3834 13.2361 11.3469 12.7533C11.1856 12.9531 10.9878 13.1366 10.7899 13.3194C10.6819 13.4196 10.5563 13.5192 10.4665 13.6357C9.89201 14.2187 9.7482 14.8519 10.0358 15.5013C10.1439 15.7511 10.3052 15.9841 10.4665 16.234C10.5921 16.4175 10.7001 16.6003 10.8075 16.8001C11.2564 17.6499 11.1666 18.6155 10.5381 19.2989C10.4841 19.349 10.4125 19.3653 10.3585 19.349C7.66473 18.7659 5.54546 15.8337 6.08421 13.4522C6.24555 12.7527 6.64121 12.0694 7.30553 11.3699C7.62892 11.0198 7.98809 10.7035 8.34726 10.3873C8.85024 9.93762 9.37075 9.47104 9.76569 8.95436C10.1964 8.37131 10.484 7.67178 10.5556 6.95533C10.6271 6.38921 10.5016 5.87252 10.376 5.33958C10.322 5.13981 10.268 4.92312 10.2322 4.70642C10.2322 4.64005 10.2322 4.58994 10.2862 4.53984C10.3402 4.50665 10.4118 4.48973 10.4658 4.50665C11.2199 4.7396 11.8667 5.28947 12.4769 5.85626C13.7698 7.05555 14.6677 8.65507 15.0626 10.4705C15.4758 9.80418 15.7094 9.12091 15.8167 8.27176C15.8167 8.18846 15.9065 8.12209 15.9963 8.12209C16.0861 8.12209 16.1576 8.17219 16.1941 8.23857C16.4635 9.08842 16.984 9.83806 17.5052 10.5376L17.649 10.7374C18.206 11.5202 18.8704 12.5698 18.9777 13.7359C19.0857 14.8689 18.7981 16.018 18.1878 16.9844L18.1528 17.0012Z" fill="#FFCB04"/>
</svg>
