<svg width="14" height="14" viewBox="0 0 14 14" fill="none" xmlns="http://www.w3.org/2000/svg">
<path fill-rule="evenodd" clip-rule="evenodd" d="M1 7C1 3.68629 3.68629 1 7 1C10.3137 1 13 3.68629 13 7C13 10.3137 10.3137 13 7 13C3.68629 13 1 10.3137 1 7ZM7.6 4C7.6 3.66863 7.33138 3.4 7 3.4C6.66862 3.4 6.4 3.66863 6.4 4V6.37762C6.4 6.51754 6.39994 6.66022 6.41146 6.78376C6.42466 6.92548 6.45574 7.084 6.54202 7.2451C6.62824 7.40626 6.74284 7.52002 6.85348 7.60966C6.9499 7.68778 7.06858 7.76686 7.18504 7.8445L8.46718 8.69926C8.74288 8.88304 9.11542 8.80852 9.29926 8.53282C9.48304 8.25712 9.40852 7.88458 9.13282 7.70074L7.86718 6.85702C7.72726 6.76372 7.65652 6.71584 7.60894 6.67732L7.6066 6.6754L7.6063 6.67234C7.6006 6.61138 7.6 6.52594 7.6 6.35776V4Z" fill="#A6A6A6"/>
</svg>
