<svg width="28" height="28" viewBox="0 0 28 28" fill="none" xmlns="http://www.w3.org/2000/svg">
<rect width="28" height="28" rx="5" fill="#DC1F1F"/>
<g clip-path="url(#clip0_222_6113)">
<path d="M9.92839 18.6667C9.92839 19.4 10.5284 20 11.2617 20H16.5951C17.3284 20 17.9284 19.4 17.9284 18.6667V12C17.9284 11.2667 17.3284 10.6667 16.5951 10.6667H11.2617C10.5284 10.6667 9.92839 11.2667 9.92839 12V18.6667ZM17.9284 8.66667H16.2617L15.7884 8.19333C15.6684 8.07333 15.4951 8 15.3217 8H12.5351C12.3617 8 12.1884 8.07333 12.0684 8.19333L11.5951 8.66667H9.92839C9.56172 8.66667 9.26172 8.96667 9.26172 9.33333C9.26172 9.7 9.56172 10 9.92839 10H17.9284C18.2951 10 18.5951 9.7 18.5951 9.33333C18.5951 8.96667 18.2951 8.66667 17.9284 8.66667Z" fill="white"/>
</g>
<defs>
<clipPath id="clip0_222_6113">
<rect width="16" height="16" fill="white" transform="translate(5.92871 6)"/>
</clipPath>
</defs>
</svg>
