<svg width="28" height="28" viewBox="0 0 28 28" fill="none" xmlns="http://www.w3.org/2000/svg">
<rect width="28" height="28" rx="5" fill="#FFCB04"/>
<g clip-path="url(#clip0_222_6108)">
<path d="M16.3042 15.2137L14.6825 15.6162C14.5316 15.6531 14.377 15.6727 14.2217 15.6745C13.9721 15.6749 13.7249 15.6256 13.4945 15.5294C13.2642 15.4333 13.0553 15.2922 12.88 15.1145C12.6506 14.8824 12.4846 14.5954 12.3978 14.2808C12.311 13.9663 12.3063 13.6347 12.3842 13.3178L12.7925 11.6962C12.8953 11.2859 13.1069 10.9111 13.405 10.6112L15.8492 8.16699H9.33333C8.71449 8.16699 8.121 8.41282 7.68342 8.85041C7.24583 9.28799 7 9.88149 7 10.5003L7 18.667C7 19.2858 7.24583 19.8793 7.68342 20.3169C8.121 20.7545 8.71449 21.0003 9.33333 21.0003H17.5C18.1188 21.0003 18.7123 20.7545 19.1499 20.3169C19.5875 19.8793 19.8333 19.2858 19.8333 18.667V12.1512L17.3892 14.5953C17.0896 14.8951 16.7148 15.1087 16.3042 15.2137Z" fill="black"/>
<path d="M20.5879 7.7543L20.2461 7.41247C20.1153 7.2817 19.9601 7.17797 19.7893 7.1072C19.6184 7.03643 19.4353 7 19.2504 7C19.0654 7 18.8823 7.03643 18.7115 7.1072C18.5406 7.17797 18.3854 7.2817 18.2546 7.41247L14.2296 11.4375C14.0801 11.587 13.9741 11.7743 13.9228 11.9794L13.5179 13.5993C13.4874 13.7213 13.4889 13.8492 13.5224 13.9704C13.556 14.0917 13.6204 14.2021 13.7093 14.2911C13.7983 14.38 13.9087 14.4444 14.03 14.478C14.1512 14.5115 14.2791 14.5131 14.4011 14.4825L16.021 14.0776C16.2261 14.0263 16.4134 13.9203 16.5629 13.7708L20.5879 9.7458C20.7187 9.61504 20.8224 9.4598 20.8932 9.28895C20.964 9.1181 21.0004 8.93498 21.0004 8.75005C21.0004 8.56512 20.964 8.382 20.8932 8.21115C20.8224 8.0403 20.7187 7.88506 20.5879 7.7543Z" fill="black"/>
</g>
<defs>
<clipPath id="clip0_222_6108">
<rect width="14" height="14" fill="white" transform="translate(7 7)"/>
</clipPath>
</defs>
</svg>
