<svg width="24" height="24" viewBox="0 0 24 24" fill="none" xmlns="http://www.w3.org/2000/svg">
<path fill-rule="evenodd" clip-rule="evenodd" d="M5.39717 10.3783C6.04376 10.0268 6.8201 10.1348 7.36497 10.6532C7.90981 11.1717 8.11552 11.998 7.88622 12.7471C7.65618 13.4961 7.03689 14.0202 6.31658 14.075C5.59627 14.129 4.91651 13.7041 4.59433 12.9971C4.15787 12.0312 4.51614 10.8613 5.39717 10.3783ZM4.26473 19.9991L20.7361 19.9999C20.8054 20.0015 20.8725 19.9725 20.9226 19.9201C20.972 19.8669 21 19.7943 21 19.7186C21 19.642 20.972 19.5694 20.9226 19.5162C20.8725 19.4638 20.8054 19.4348 20.7361 19.4364H20.4677C20.8614 18.9422 20.9469 18.2383 20.6852 17.6481C20.5134 17.2619 20.2059 16.9685 19.8336 16.833L17.9049 16.1259C17.7928 16.0872 17.6896 16.0219 17.6026 15.9357L14.9727 13.4137C14.8334 13.2791 14.6704 13.1767 14.4942 13.1138L10.622 11.694C9.88846 11.4255 9.09517 11.8585 8.84966 12.6599L7.94356 15.6188L6.46535 17.8392C6.36582 17.9868 6.29504 18.1552 6.25669 18.3342C6.18076 18.7172 6.25522 19.1171 6.46238 19.4372H4.26394C4.19464 19.4348 4.12755 19.4638 4.07741 19.517C4.02802 19.5694 4 19.6428 4 19.7186C4 19.7943 4.02802 19.8669 4.07741 19.9201C4.12755 19.9733 4.19464 20.0015 4.26394 19.9999L4.26473 19.9991ZM8.48194 19.4364L10.1703 16.8814C10.1887 16.8564 10.2027 16.8282 10.2123 16.7975L10.7195 15.1423L13.5544 16.1816C13.6665 16.2203 13.7697 16.2856 13.8574 16.3718L16.4866 18.893C16.6259 19.0284 16.7889 19.13 16.9651 19.1937L17.6271 19.4364L8.48194 19.4364ZM7.87812 4.1419V4.14271C7.95996 4.0516 8.07128 4 8.18777 4C8.30426 4 8.41631 4.0516 8.49815 4.14271L9.66377 5.41737H9.66303C9.8326 5.60281 9.8326 5.90354 9.66303 6.08897C9.49346 6.27441 9.21846 6.27441 9.04889 6.08897L8.62275 5.62216V8.70595C8.62275 8.96797 8.42813 9.18083 8.1885 9.18083C7.94888 9.18083 7.75425 8.96799 7.75425 8.70595V5.62216L7.32738 6.08897C7.1578 6.27441 6.8828 6.27441 6.71324 6.08897C6.54366 5.90354 6.54366 5.6028 6.71324 5.41737L7.87886 4.14271L7.87812 4.1419ZM9.72201 9.17201L10.8876 10.4467V10.4459C11.0388 10.6152 11.2806 10.6361 11.4553 10.4959C11.518 10.4459 12.5288 9.32924 12.6733 9.17201H12.6725C12.8429 8.98657 12.8429 8.68584 12.6725 8.50041C12.503 8.31498 12.2287 8.31498 12.0584 8.50041L11.6315 8.96642V5.88181C11.6315 5.61978 11.4376 5.40693 11.198 5.40693C10.9577 5.40693 10.7638 5.61976 10.7638 5.88181V8.96642L10.3369 8.49961C10.1666 8.31417 9.89158 8.31417 9.72201 8.49961C9.55244 8.68504 9.55244 8.98658 9.72201 9.17201Z" fill="#FFCB04"/>
</svg>
