<svg width="7" height="13" viewBox="0 0 7 13" fill="none" xmlns="http://www.w3.org/2000/svg">
<path d="M6.89168 7.37101L6.52611 7.60988C6.4178 7.68014 6.26886 7.63799 6.2147 7.52557L5.30754 5.93775C5.23985 5.81129 5.05029 5.86749 5.05029 6.00801V11.9518C5.05029 12.0923 4.94197 12.2047 4.80658 12.2047H4.12959C3.9942 12.2047 3.88588 12.0923 3.88588 11.9518V9.12745C3.88588 9.01503 3.80464 8.93073 3.69633 8.93073H3.22244C3.11412 8.93073 3.03288 9.01503 3.03288 9.12745V11.9659C3.03288 12.1064 2.92457 12.2188 2.78917 12.2188H2.19342C2.05803 12.2188 1.94971 12.1064 1.94971 11.9659V6.00801C1.94971 5.86749 1.76015 5.81129 1.69246 5.93775L0.7853 7.53963C0.717602 7.65204 0.582205 7.69419 0.473888 7.62393L0.108317 7.38506C4.03513e-08 7.3148 -0.0270793 7.17429 0.0270793 7.06187L1.78723 4.0408C1.88201 3.87218 2.07157 3.75977 2.26112 3.75977H2.51838C2.57253 3.75977 2.61315 3.77382 2.65377 3.78787C2.91103 3.90028 3.2089 3.97054 3.50677 3.97054C3.80464 3.97054 4.10251 3.90028 4.35977 3.78787C4.40039 3.77382 4.45455 3.75977 4.49516 3.75977H4.73888C4.92843 3.75977 5.10445 3.85813 5.21277 4.0408L6.97292 7.06187C7.02708 7.16023 7 7.30075 6.89168 7.37101Z" fill="#A6A6A6"/>
<path d="M3.49372 3.4225C4.34618 3.4225 5.03724 2.70531 5.03724 1.82062C5.03724 0.935933 4.34618 0.21875 3.49372 0.21875C2.64125 0.21875 1.9502 0.935933 1.9502 1.82062C1.9502 2.70531 2.64125 3.4225 3.49372 3.4225Z" fill="#A6A6A6"/>
</svg>
