<svg width="22" height="22" viewBox="0 0 22 22" fill="none" xmlns="http://www.w3.org/2000/svg">
<rect width="22" height="22" rx="4" fill="#DC1F1F"/>
<path d="M15.3665 15.3665C15.7186 15.0144 15.7186 14.4642 15.3665 14.1121L12.2546 11.0002L15.3665 7.88826C15.7186 7.53617 15.7186 6.98589 15.3665 6.6338C15.0144 6.2817 14.4642 6.2817 14.1121 6.6338L11.0002 9.7457L7.88826 6.6338C7.53617 6.2817 6.98589 6.2817 6.6338 6.6338C6.2817 6.98589 6.2817 7.53617 6.6338 7.88826L9.7457 11.0002L6.6338 14.1121C6.2817 14.4642 6.2817 15.0144 6.6338 15.3665C6.8107 15.5434 7.0282 15.6219 7.26103 15.6219C7.49386 15.6219 7.71137 15.5434 7.88826 15.3665L11.0002 12.2546L14.1121 15.3665C14.289 15.5434 14.5065 15.6219 14.7393 15.6219C14.9721 15.6219 15.1896 15.5434 15.3665 15.3665Z" fill="white" stroke="white" stroke-width="0.2"/>
</svg>
