<svg width="43" height="42" viewBox="0 0 43 42" fill="none" xmlns="http://www.w3.org/2000/svg">
<path d="M27.9872 9.26238L22.7372 4.01238C22.4091 3.6843 21.964 3.5 21.5 3.5C21.0359 3.5 20.5909 3.6843 20.2627 4.01238L15.0127 9.26238C14.694 9.59243 14.5176 10.0345 14.5216 10.4933C14.5255 10.9522 14.7096 11.3911 15.034 11.7156C15.3585 12.04 15.7974 12.2241 16.2563 12.2281C16.7151 12.232 17.1572 12.0557 17.4872 11.7369L19.75 9.47413V29.7496C19.75 30.2138 19.9344 30.6589 20.2625 30.9871C20.5907 31.3153 21.0359 31.4996 21.5 31.4996C21.9641 31.4996 22.4092 31.3153 22.7374 30.9871C23.0656 30.6589 23.25 30.2138 23.25 29.7496V9.47413L25.5127 11.7369C25.8428 12.0557 26.2848 12.232 26.7437 12.2281C27.2025 12.2241 27.6414 12.04 27.9659 11.7156C28.2904 11.3911 28.4744 10.9522 28.4784 10.4933C28.4824 10.0345 28.306 9.59243 27.9872 9.26238Z" fill="#FFCB04"/>
<path d="M32 15.75H23.25V29.75C23.25 30.2141 23.0656 30.6592 22.7374 30.9874C22.4092 31.3156 21.9641 31.5 21.5 31.5C21.0359 31.5 20.5908 31.3156 20.2626 30.9874C19.9344 30.6592 19.75 30.2141 19.75 29.75V15.75H11C9.60804 15.7514 8.27349 16.305 7.28922 17.2892C6.30496 18.2735 5.75139 19.608 5.75 21V33.25C5.75139 34.642 6.30496 35.9765 7.28922 36.9608C8.27349 37.945 9.60804 38.4986 11 38.5H32C33.392 38.4986 34.7265 37.945 35.7108 36.9608C36.695 35.9765 37.2486 34.642 37.25 33.25V21C37.2486 19.608 36.695 18.2735 35.7108 17.2892C34.7265 16.305 33.392 15.7514 32 15.75Z" fill="#FFCB04" fill-opacity="0.4"/>
</svg>
