<svg width="40" height="40" viewBox="0 0 40 40" fill="none" xmlns="http://www.w3.org/2000/svg">
<rect width="40" height="40" rx="20" fill="#FFCB04"/>
<g clip-path="url(#clip0_213_4159)">
<path d="M22.9625 21.56L20.8775 22.0775C20.6835 22.125 20.4847 22.1502 20.285 22.1525C19.9641 22.153 19.6463 22.0896 19.3501 21.966C19.0539 21.8424 18.7853 21.661 18.56 21.4325C18.2651 21.1341 18.0516 20.7651 17.94 20.3606C17.8284 19.9562 17.8224 19.5299 17.9225 19.1225L18.4475 17.0375C18.5796 16.5101 18.8517 16.0281 19.235 15.6425L22.3775 12.5H14C13.2044 12.5 12.4413 12.8161 11.8787 13.3787C11.3161 13.9413 11 14.7044 11 15.5V26C11 26.7956 11.3161 27.5587 11.8787 28.1213C12.4413 28.6839 13.2044 29 14 29H24.5C25.2956 29 26.0587 28.6839 26.6213 28.1213C27.1839 27.5587 27.5 26.7956 27.5 26V17.6225L24.3575 20.765C23.9723 21.1505 23.4905 21.4251 22.9625 21.56Z" fill="black"/>
<path d="M28.4697 11.9698L28.0302 11.5303C27.862 11.3622 27.6624 11.2288 27.4428 11.1378C27.2231 11.0468 26.9877 11 26.7499 11C26.5121 11 26.2767 11.0468 26.057 11.1378C25.8374 11.2288 25.6378 11.3622 25.4697 11.5303L20.2947 16.7053C20.1025 16.8975 19.9661 17.1384 19.9002 17.4021L19.3797 19.4848C19.3403 19.6417 19.3423 19.8061 19.3854 19.962C19.4286 20.1179 19.5113 20.2599 19.6257 20.3743C19.7401 20.4886 19.8821 20.5714 20.038 20.6145C20.1939 20.6576 20.3583 20.6596 20.5152 20.6203L22.5979 20.0998C22.8616 20.0339 23.1024 19.8975 23.2947 19.7053L28.4697 14.5303C28.6378 14.3622 28.7712 14.1626 28.8621 13.9429C28.9531 13.7233 29 13.4878 29 13.2501C29 13.0123 28.9531 12.7769 28.8621 12.5572C28.7712 12.3375 28.6378 12.1379 28.4697 11.9698Z" fill="black"/>
</g>
<defs>
<clipPath id="clip0_213_4159">
<rect width="18" height="18" fill="white" transform="translate(11 11)"/>
</clipPath>
</defs>
</svg>
