<svg width="24" height="24" viewBox="0 0 24 24" fill="none" xmlns="http://www.w3.org/2000/svg">
<path d="M14.8522 6.30882V5.71324C14.8522 4.22426 13.5652 3 12 3C10.4348 3 9.14783 4.22426 9.14783 5.71324V6.30882C6.15652 7.36765 4 10.1471 4 13.3897C4 17.5919 7.58261 21 12 21C16.4174 21 20 17.5919 20 13.3897C20 10.1801 17.8435 7.40073 14.8522 6.30882ZM6.9913 12.7279C7.09565 12.7279 7.23478 12.7279 7.33913 12.7279C8.17391 12.7279 9.0087 12.7279 9.8087 12.7279C10.1913 12.7279 10.5043 13.0257 10.5043 13.3897C10.5043 13.7537 10.1565 14.0515 9.8087 14.0515C9.70435 14.0515 9.56522 14.0515 9.46087 14.0515C8.62609 14.0515 7.7913 14.0515 6.9913 14.0515C6.6087 14.0515 6.29565 13.7537 6.29565 13.3897C6.29565 13.0588 6.64348 12.7279 6.9913 12.7279ZM6.85217 15.4081C6.85217 15.0441 7.2 14.7463 7.54783 14.7463C7.65217 14.7463 7.7913 14.7463 7.89565 14.7463C8.73044 14.7463 9.56522 14.7463 10.3652 14.7463C10.7478 14.7463 11.0609 15.0441 11.0609 15.4081C11.0609 15.7721 10.713 16.0699 10.3652 16.0699C10.2609 16.0699 10.1217 16.0699 10.0174 16.0699C9.18261 16.0699 8.34783 16.0699 7.54783 16.0699C7.16522 16.0699 6.88696 15.7721 6.85217 15.4081ZM8.83478 17.4265C8.83478 17.0625 9.18261 16.7647 9.53043 16.7647C9.63478 16.7647 9.77391 16.7647 9.87826 16.7647C10.713 16.7647 11.5478 16.7647 12.3478 16.7647C12.7304 16.7647 13.0435 17.0625 13.0435 17.4265C13.0435 17.7904 12.6957 18.0882 12.3478 18.0882C12.2435 18.0882 12.1043 18.0882 12 18.0882C11.1652 18.0882 10.3304 18.0882 9.53043 18.0882C9.14783 18.0882 8.86957 17.7904 8.83478 17.4265ZM13.8783 16.136C13.4261 15.7059 12.9739 15.2757 12.5217 14.8456C12.2783 14.614 12.0348 14.3824 11.7565 14.1176C11.5826 13.9522 11.3739 13.7868 11.3043 13.5882C11.2 13.1581 11.3043 12.6618 11.3043 12.2316C11.3043 11.0735 11.3043 9.91544 11.3043 8.75735C11.3043 7.89706 12.6957 7.89706 12.6957 8.75735C12.6957 10.2132 12.6957 11.6691 12.6957 13.125C13.4261 13.8199 14.1565 14.5147 14.887 15.2096C15.513 15.8051 14.5391 16.7316 13.8783 16.136Z" fill="#FFCB04"/>
</svg>
